<?xml version="1.0"?>
<svg xmlns="http://www.w3.org/2000/svg" xmlns:xlink="http://www.w3.org/1999/xlink" xmlns:svgjs="http://svgjs.com/svgjs" version="1.1" width="512" height="512" x="0" y="0" viewBox="0 0 480 480" style="enable-background:new 0 0 512 512" xml:space="preserve" class=""><g>
<g xmlns="http://www.w3.org/2000/svg">
	<g>
		<path d="M32,328h16c0.057-48.577,39.423-87.943,88-88v-16C78.59,224.066,32.066,270.59,32,328z" fill="#787cb1" data-original="#000000" style="" class=""/>
	</g>
</g>
<g xmlns="http://www.w3.org/2000/svg">
	<g>
		<path d="M224,328c-0.057,48.577-39.423,87.943-88,88v16c57.41-0.066,103.934-46.59,104-104H224z" fill="#787cb1" data-original="#000000" style="" class=""/>
	</g>
</g>
<g xmlns="http://www.w3.org/2000/svg">
	<g>
		<path d="M183.007,344.078c-1.591-6.231-5.029-11.836-9.863-16.078c13.237-11.617,14.55-31.764,2.934-45.001    c-4.242-4.834-9.847-8.272-16.078-9.863V256h-16v16h-16v-16h-16v16H96c-4.418,0-8,3.582-8,8v96c0,4.418,3.582,8,8,8h16v16h16v-16    h16v16h16v-17.136C177.064,378.507,187.364,361.142,183.007,344.078z M152,368h-48v-32h48c8.837,0,16,7.163,16,16    S160.837,368,152,368z M152,320h-48v-32h48c8.837,0,16,7.163,16,16S160.837,320,152,320z" fill="#787cb1" data-original="#000000" style="" class=""/>
	</g>
</g>
<g xmlns="http://www.w3.org/2000/svg">
	<g>
		<path d="M48,96H32c0,17.673-14.327,32-32,32v16c17.673,0,32,14.327,32,32h16c0-17.673,14.327-32,32-32v-16    C62.327,128,48,113.673,48,96z M40,149.6c-3.546-5.388-8.135-10.012-13.496-13.6c5.361-3.588,9.95-8.212,13.496-13.6    c3.546,5.388,8.135,10.013,13.496,13.6C48.135,139.588,43.546,144.212,40,149.6z" fill="#787cb1" data-original="#000000" style="" class=""/>
	</g>
</g>
<g xmlns="http://www.w3.org/2000/svg">
	<g>
		<path d="M472,352h-24v-88c0-4.418-3.582-8-8-8h-8v-32h24c4.418,0,8-3.582,8-8v-48c0-4.418-3.582-8-8-8h-24v-32h8    c4.418,0,8-3.582,8-8V72c0-4.418-3.582-8-8-8h-16V24c0-4.418-3.582-8-8-8H160c-4.418,0-8,3.582-8,8v48c0,4.418,3.582,8,8,8h16v32    h-8c-4.418,0-8,3.582-8,8v48c0,4.418,3.582,8,8,8h24v28.208c-68.412-30.899-148.92-0.489-179.819,67.923    c-30.899,68.412-0.489,148.92,67.923,179.819c30.287,13.679,64.535,15.789,96.272,5.93c0.824,3.555,3.974,6.085,7.624,6.12h256    c4.418,0,8-3.582,8-8v-40h24c4.418,0,8-3.582,8-8v-48C480,355.582,476.418,352,472,352z M448,176v32h-16v-16h-16v16h-16v-16h-16    v16h-16v-16h-16v16h-16v-16h-16v16h-16v-16h-16v16h-16v-16h-16v16h-16v-16h-16v16h-16v-32h216H448z M400,336v16h-16v-16h-16v16    h-16v-16h-16v16h-16v-16h-16v16h-16v-16h-16v16h-2.24c0.04-0.224,0.048-0.448,0.088-0.672c0.632-3.608,1.192-7.2,1.528-10.936    c0.4-4.16,0.624-8.304,0.624-12.392c0-2.592-0.088-5.224-0.28-8H432v32h-16v-16H400z M416,304v-16h-16v16h-16v-16h-16v16h-16v-16    h-16v16h-16v-16h-16v16h-16v-16h-16v16h-2.224l-0.096-0.44c-0.392-2.168-0.856-4.312-1.352-6.448c-0.376-1.6-0.8-3.2-1.248-4.8    c-0.8-3.008-1.728-5.96-2.744-8.88c-0.616-1.768-1.24-3.52-1.928-5.264c-0.688-1.744-1.44-3.576-2.224-5.328    c-0.12-0.272-0.216-0.544-0.336-0.8L424,272h8v32H416z M384,240v16h-16v-16h-16v16h-16v-16h-16v16h-16v-16h-16v16h-16v-16h-16v16    h-4.744c-0.256-0.408-0.56-0.8-0.8-1.2c-1.264-1.968-2.584-3.888-3.944-5.784c-1.016-1.424-2.064-2.816-3.136-4.2    c-1.28-1.6-2.552-3.288-3.904-4.872c-1.52-1.784-3.12-3.488-4.72-5.192c-1.056-1.12-2.064-2.28-3.152-3.368    c-2.584-2.56-5.264-5.032-8.048-7.384H416v32h-16v-16H384z M432,80v32h-16V96h-16v16h-16V96h-16v16h-16V96h-16v16h-16V96h-16v16    h-16V96h-16v16h-16V96h-16v16h-16V96h-16v16h-16V80H432z M168,64V32h240v32h-16V48h-16v16h-16V48h-16v16h-16V48h-16v16h-16V48h-16    v16h-16V48h-16v16h-16V48h-16v16h-16V48h-16v16H168z M176,160v-32h240v32h-16v-16h-16v16h-16v-16h-16v16h-16v-16h-16v16h-16v-16    h-16v16h-16v-16h-16v16h-16v-16h-16v16h-16v-16h-16v16H176z M208,448h-8.056c2.76-1.48,5.408-3.136,8.056-4.8V448z     M219.752,413.744c-0.616,0.6-1.288,1.152-1.912,1.744c-2.832,2.64-5.784,5.152-8.856,7.504c-0.912,0.704-1.835,1.395-2.768,2.072    c-3.332,2.423-6.787,4.672-10.352,6.736c-0.48,0.28-0.928,0.592-1.408,0.856C176.599,442.674,156.475,447.956,136,448    c-66.243-0.075-119.925-53.757-120-120c-0.07-66.217,53.552-119.953,119.769-120.023c23.644-0.025,46.768,6.941,66.463,20.023    c0.744,0.496,1.464,1.024,2.2,1.536c2.171,1.509,4.285,3.091,6.344,4.744c0.76,0.608,1.528,1.2,2.272,1.824    c2.464,2.075,4.845,4.24,7.144,6.496c0.848,0.8,1.6,1.728,2.464,2.592c1.429,1.493,2.821,3.024,4.176,4.592    c1.048,1.224,2.096,2.464,3.096,3.736c1,1.272,1.976,2.6,2.936,3.912c1.893,2.608,3.691,5.296,5.392,8.064    c0.6,0.976,1.216,1.944,1.792,2.944c1.72,3,3.28,6.072,4.728,9.184c0.216,0.464,0.456,0.92,0.672,1.392    c1.44,3.2,2.712,6.48,3.856,9.792c0.136,0.4,0.304,0.8,0.44,1.192c1.176,3.528,2.176,7.112,3.024,10.752    c0.04,0.184,0.096,0.352,0.136,0.536c0.869,3.84,1.555,7.733,2.056,11.68c0.256,2.088,0.416,3.944,0.576,5.816    c0.232,3.048,0.464,6.088,0.464,9.192c0,3.36-0.232,6.664-0.504,9.952c-0.128,1.456-0.248,2.912-0.432,4.376    c-0.136,1.12-0.344,2.216-0.512,3.328c-0.624,4-1.4,8-2.4,12.064l-0.112,0.44c-1,3.864-2.2,7.632-3.552,11.328    c-0.152,0.408-0.296,0.8-0.456,1.232c-1.224,3.2-2.632,6.4-4.128,9.504c-0.384,0.8-0.752,1.6-1.16,2.4    c-1.376,2.704-2.912,5.328-4.496,7.928c-0.608,0.976-1.168,1.984-1.792,2.944c-1.656,2.536-3.472,4.984-5.328,7.408    c-0.624,0.8-1.2,1.664-1.84,2.464C226.313,406.992,223.129,410.465,219.752,413.744z M432,448h-16v-16h-16v16h-16v-16h-16v16h-16    v-16h-16v16h-16v-16h-16v16h-16v-16h-16v16h-16v-16h-16v16h-16v-16h-0.544c1.344-1.128,2.592-2.4,3.896-3.536    c1.304-1.136,2.696-2.4,4-3.616c1.728-1.704,3.328-3.52,4.96-5.312c1.088-1.192,2.264-2.304,3.312-3.536H432V448z M464,400h-16    v-16h-16v16h-16v-16h-16v16h-16v-16h-16v16h-16v-16h-16v16h-16v-16h-16v16h-16v-16h-16v16h-20.688    c1.016-1.6,1.944-3.32,2.888-4.992c0.944-1.672,1.76-3.2,2.6-4.8c1.136-2.216,2.24-4.464,3.256-6.752    c0.896-1.992,1.72-4,2.52-6.064c0.376-0.976,0.728-1.968,1.088-2.952c0.8-2.144,1.6-4.248,2.312-6.4H464V400z" fill="#787cb1" data-original="#000000" style="" class=""/>
	</g>
</g>
<g xmlns="http://www.w3.org/2000/svg">
</g>
<g xmlns="http://www.w3.org/2000/svg">
</g>
<g xmlns="http://www.w3.org/2000/svg">
</g>
<g xmlns="http://www.w3.org/2000/svg">
</g>
<g xmlns="http://www.w3.org/2000/svg">
</g>
<g xmlns="http://www.w3.org/2000/svg">
</g>
<g xmlns="http://www.w3.org/2000/svg">
</g>
<g xmlns="http://www.w3.org/2000/svg">
</g>
<g xmlns="http://www.w3.org/2000/svg">
</g>
<g xmlns="http://www.w3.org/2000/svg">
</g>
<g xmlns="http://www.w3.org/2000/svg">
</g>
<g xmlns="http://www.w3.org/2000/svg">
</g>
<g xmlns="http://www.w3.org/2000/svg">
</g>
<g xmlns="http://www.w3.org/2000/svg">
</g>
<g xmlns="http://www.w3.org/2000/svg">
</g>
</g></svg>
