<?xml version="1.0" encoding="UTF-8"?>
<!DOCTYPE svg PUBLIC "-//W3C//DTD SVG 1.1//EN" "http://www.w3.org/Graphics/SVG/1.1/DTD/svg11.dtd">
<!-- Creator: CorelDRAW X7 -->
<svg xmlns="http://www.w3.org/2000/svg" xml:space="preserve" width="109.164mm" height="109.49mm" version="1.1" style="shape-rendering:geometricPrecision; text-rendering:geometricPrecision; image-rendering:optimizeQuality; fill-rule:evenodd; clip-rule:evenodd"
viewBox="0 0 5243 5259"
 xmlns:xlink="http://www.w3.org/1999/xlink">
 <defs>
  <style type="text/css">
   <![CDATA[
    .fil2 {fill:#373435}
    .fil5 {fill:#012169}
    .fil8 {fill:#2F2E41}
    .fil6 {fill:#3F3D56}
    .fil9 {fill:#5084F8}
    .fil4 {fill:#CCCCCC}
    .fil7 {fill:#FFB8B8}
    .fil3 {fill:white}
    .fil1 {fill:#5084F8;fill-opacity:0.788235}
    .fil0 {fill:#5084F8}
   ]]>
  </style>
 </defs>
 <g id="Capa_x0020_1">
  <metadata id="CorelCorpID_0Corel-Layer"/>
  <g id="_2290952797792">
   <path id="fa3b9e12-7275-481e-bee9-64fd9595a50d" class="fil0" d="M504 4430l-46 -182c-81,-35 -166,-65 -251,-90l-6 85 -23 -94c-106,-30 -178,-43 -178,-43 0,0 97,369 301,652l237 42 -184 26c26,31 53,60 83,87 296,276 626,402 737,282 111,-119 -40,-439 -336,-714 -92,-85 -207,-154 -323,-208l-11 157z" data-name="Path 1"/>
   <path id="bde08021-c30f-4979-a9d8-cb90b72b5ca2" class="fil1" d="M943 4232l55 -180c-52,-72 -108,-141 -168,-206l-49 69 28 -92c-75,-80 -130,-129 -130,-129 0,0 -107,366 -79,714l182 158 -172 -73c6,40 15,80 25,118 112,389 329,668 486,623 157,-45 193,-397 82,-786 -35,-120 -98,-238 -169,-344l-91 128z" data-name="Path 2"/>
   <path id="b3ac2088-de9b-4f7f-bc99-0ed9705c1a9d" class="fil2" d="M3659 1246l-29 0 0 -789c0,-252 -205,-457 -457,-457l-1672 0c-252,0 -456,205 -456,457l0 4329c0,252 204,456 456,456l1672 0c252,0 457,-204 457,-456l0 -2979 29 0 0 -561z" data-name="Path 22"/>
   <path id="b2715b96-3117-487c-acc0-20904544b5b7" class="fil3" d="M3192 119l-219 0c8,19 12,40 12,61 0,89 -72,162 -162,162 0,0 0,0 0,0l-957 0c-90,0 -163,-73 -163,-162 0,-21 5,-42 12,-61l-203 0c-189,0 -341,153 -341,341l0 4323c0,188 152,341 341,341l1680 0c188,0 341,-153 341,-341l0 0 0 -4323c0,-188 -153,-341 -341,-341l0 0z" data-name="Path 23"/>
   <g>
    <path id="b06d66ec-6c84-45dd-8c27-1263a6253192" class="fil4" d="M2232 1670c-26,-15 -55,-23 -86,-23 -95,0 -172,77 -172,172 0,95 77,172 172,172 31,0 60,-8 87,-23 -54,-31 -87,-88 -87,-149 0,-62 33,-119 87,-149l-1 0z" data-name="Path 6"/>
    <path id="e73810fe-4cf4-40cc-8c7c-ca544ce30bd4" class="fil4" d="M2449 1670c-26,-15 -56,-23 -86,-23 -95,0 -172,77 -172,172 0,95 77,172 172,172 30,0 60,-8 86,-23 -53,-31 -86,-88 -86,-149 0,-62 33,-119 86,-149l0 0z" data-name="Path 7"/>
    <circle id="a4813fcf-056e-4514-bb8b-e6506f49341f" class="fil5" cx="2578" cy="1819" r="172" data-name="Ellipse 1"/>
   </g>
   <path id="bbe451c3-febc-41ba-8083-4c8307a2e73e" class="fil4" d="M2853 2378l-1003 0c-20,0 -36,-16 -36,-36l0 -1003c0,-20 16,-36 36,-36l1003 0c20,0 36,16 36,36l0 1003c0,20 -16,36 -36,36zm-967 -1096c-12,0 -22,9 -22,21l0 1003c0,12 10,22 22,22l1003 0c12,0 22,-10 22,-22l0 -1003c0,-12 -10,-21 -22,-21l-1003 0z" data-name="Path 8"/>
   <rect id="bb28937d-932f-4fdf-befe-f406e51091fe" class="fil4" x="1539" y="3147" width="1538.41" height="14.409" data-name="Rectangle 1"/>
   <circle id="fcef55fc-4968-45b2-93bb-1a1080c85fc7" class="fil5" cx="1587" cy="3009" r="49" data-name="Ellipse 2"/>
   <rect id="ff33d889-4c74-4b91-85ef-b4882cc8fe76" class="fil4" x="1539" y="3633" width="1538.41" height="14.409" data-name="Rectangle 2"/>
   <circle id="e8fa0310-b872-4adf-aedd-0c6eda09f3b8" class="fil5" cx="1587" cy="3494" r="49" data-name="Ellipse 3"/>
   <path class="fil5" d="M3049 4186l-486 0c-18,0 -32,-14 -32,-31l0 -171c0,-17 14,-32 32,-32l486 0c17,0 31,15 31,32l0 171c0,17 -14,31 -31,31l0 0z"/>
   <circle id="e12ee00d-aa4a-4413-a013-11d20b7f97f7" class="fil5" cx="1746" cy="3009" r="49" data-name="Ellipse 7"/>
   <circle id="f58f497e-6949-45c8-be5f-eee2aa0f6586" class="fil5" cx="1904" cy="3009" r="49" data-name="Ellipse 8"/>
   <circle id="b4d4939a-c6e6-4f4d-ba6c-e8b05485017d" class="fil5" cx="1746" cy="3494" r="49" data-name="Ellipse 9"/>
   <circle id="aff120b1-519b-4e96-ac87-836aa55663de" class="fil5" cx="1904" cy="3494" r="49" data-name="Ellipse 10"/>
   <path id="f1094013-1297-477a-ac57-08eac07c4bd5" class="fil6" d="M5224 5259l-5054 0c-11,0 -20,-4 -20,-9 0,-5 9,-8 20,-8l5054 0c10,0 19,3 19,8 0,5 -9,9 -19,9z" data-name="Path 88"/>
   <path class="fil7" d="M3975 3445c3,2 7,4 10,6l316 -135 11 -83 126 -1 -8 191 -416 110c-12,25 -38,42 -65,42 -40,0 -72,-33 -72,-72 0,-40 32,-72 72,-72 10,0 20,2 29,6l-3 8z"/>
   <polygon class="fil7" points="4484,5174 4398,5174 4356,4841 4484,4841 "/>
   <path class="fil8" d="M4336 5149l166 0 0 105 -271 0 0 0c0,0 0,0 0,0 0,-58 47,-105 105,-105l0 0z"/>
   <polygon class="fil7" points="4819,5150 4734,5158 4660,4831 4787,4818 "/>
   <path class="fil8" d="M4670 5139l165 -16 11 104 -270 27 0 0c0,0 0,0 0,0 -6,-58 36,-109 94,-115l0 0z"/>
   <circle class="fil7" cx="4508" cy="2707" r="173"/>
   <path class="fil8" d="M4378 5107c0,0 0,0 0,0 -15,0 -28,-11 -31,-26 -45,-248 -191,-1059 -194,-1082 0,0 0,-1 0,-1 0,0 0,0 0,0l0 -61c0,0 0,0 0,0 0,-2 1,-4 2,-6l19 -27c2,-2 5,-4 8,-4 110,-5 470,-20 488,1l0 0c17,22 11,88 10,101l0 2 161 1034c1,2 1,4 1,5 0,16 -11,29 -27,32l-101 16c-1,0 -3,1 -5,1 -14,0 -26,-9 -30,-23 -31,-99 -136,-435 -173,-565 0,-2 -1,-3 -3,-3 -2,0 -3,2 -3,4 0,0 0,0 0,0 1,124 6,440 7,549l0 12c0,0 0,0 0,0 0,16 -12,30 -28,32l-98 8c-1,1 -2,1 -3,1z"/>
   <path id="ae7af94f-88d7-4204-9f07-e3651de85c05" class="fil9" d="M4398 2948c-30,18 -48,51 -58,84 -20,62 -31,127 -35,191l-11 195 -135 515c117,99 185,77 343,-5 158,-81 176,27 176,27l32 -438 45 -479c-61,-47 -137,-73 -215,-73 -28,0 -56,3 -84,10l-58 -27z" data-name="Path 99"/>
   <path class="fil7" d="M4354 3549c4,2 7,3 11,5l312 -156 5 -85 129 -8 7 193 -417 137c-8,34 -38,58 -72,58 -41,0 -74,-33 -74,-74 0,-41 33,-74 74,-74 8,0 17,1 25,4l0 0z"/>
   <path id="a6768b0e-63d0-4b31-8462-9b2e0b00f0fd" class="fil9" d="M4753 3041c77,27 90,320 90,320 -90,-49 -199,32 -199,32 0,0 -22,-77 -49,-176 -5,-16 -7,-32 -7,-49 0,-42 15,-82 43,-114 28,-31 45,-41 122,-13z" data-name="Path 101"/>
   <path id="bfd7963f-0cf8-4885-9d3a-2c00bccda2e3" class="fil8" d="M4663 2753c-22,-17 -51,14 -51,14l-17 -155c0,0 -108,13 -177,-5 -69,-17 -80,63 -80,63 -2,-20 -3,-41 -3,-61 0,-12 0,-24 1,-36 5,-39 61,-78 160,-103 99,-26 150,86 150,86 69,34 38,214 17,197z" data-name="Path 102"/>
  </g>
 </g>
</svg>
